<svg width="1247" height="478" viewBox="0 0 1247 478" fill="none" xmlns="http://www.w3.org/2000/svg">
<g style="mix-blend-mode:screen" clip-path="url(#clip0)" filter="url(#filter0_d)">
<g style="mix-blend-mode:multiply">
<path fill-rule="evenodd" clip-rule="evenodd" d="M957.553 436.184C1005.62 404.3 1059.35 346.387 1120.58 253.723L1121.42 254.274C1060.15 346.986 1006.33 405.026 958.105 437.017C909.858 469.021 867.185 474.966 828.272 463.448C789.392 451.939 754.344 423.019 721.276 385.463C688.205 347.902 657.065 301.647 626.022 255.403L624.941 253.792C594.252 208.073 563.636 162.464 531.292 125.304C498.564 87.7035 464.114 58.8116 426.096 47.1963C388.112 35.5915 346.487 41.2093 299.332 72.7974C252.157 104.399 199.466 161.982 139.419 254.271L138.581 253.726C198.659 161.39 251.437 103.677 298.775 71.9665C346.134 40.2423 388.068 34.5322 426.388 46.24C464.675 57.9373 499.276 86.9987 532.046 124.648C564.432 161.855 595.076 207.508 625.75 253.203L626.853 254.846C657.904 301.102 689.006 347.3 722.027 384.802C755.05 422.308 789.944 451.06 828.556 462.489C867.135 473.908 909.505 468.055 957.553 436.184Z" fill="black"/>
<path d="M1120.58 253.723L1120.86 253.306L1120.44 253.03L1120.17 253.447L1120.58 253.723ZM957.553 436.184L957.829 436.601L957.829 436.601L957.553 436.184ZM1121.42 254.274L1121.83 254.55L1122.11 254.133L1121.69 253.857L1121.42 254.274ZM958.105 437.017L957.829 436.601L957.829 436.601L958.105 437.017ZM828.272 463.448L828.13 463.927L828.13 463.927L828.272 463.448ZM721.276 385.463L720.901 385.793L720.901 385.793L721.276 385.463ZM626.022 255.403L625.607 255.682L625.607 255.682L626.022 255.403ZM624.941 253.792L624.525 254.07L624.525 254.07L624.941 253.792ZM531.292 125.304L531.669 124.976L531.669 124.976L531.292 125.304ZM426.096 47.1963L426.242 46.7182L426.242 46.7182L426.096 47.1963ZM299.332 72.7974L299.61 73.2128L299.61 73.2128L299.332 72.7974ZM139.419 254.271L139.146 254.691L139.566 254.963L139.838 254.544L139.419 254.271ZM138.581 253.726L138.162 253.453L137.889 253.872L138.308 254.145L138.581 253.726ZM298.775 71.9665L298.497 71.5511L298.497 71.5511L298.775 71.9665ZM426.388 46.24L426.242 46.7182L426.242 46.7182L426.388 46.24ZM532.046 124.648L531.669 124.976L531.669 124.976L532.046 124.648ZM625.75 253.203L625.335 253.482L625.335 253.482L625.75 253.203ZM626.853 254.846L626.438 255.125L626.438 255.125L626.853 254.846ZM722.027 384.802L722.402 384.472L722.402 384.472L722.027 384.802ZM828.556 462.489L828.698 462.009L828.698 462.009L828.556 462.489ZM1120.17 253.447C1058.95 346.088 1005.26 403.937 957.276 435.767L957.829 436.601C1005.98 404.663 1059.75 346.686 1121 253.999L1120.17 253.447ZM1121.69 253.857L1120.86 253.306L1120.31 254.14L1121.14 254.692L1121.69 253.857ZM958.382 437.434C1006.69 405.389 1060.55 347.285 1121.83 254.55L1121 253.999C1059.75 346.686 1005.98 404.663 957.829 436.601L958.382 437.434ZM828.13 463.927C867.21 475.494 910.034 469.504 958.382 437.434L957.829 436.601C909.682 468.538 867.16 474.437 828.414 462.968L828.13 463.927ZM720.901 385.793C753.991 423.375 789.115 452.379 828.13 463.927L828.414 462.968C789.668 451.499 754.697 422.664 721.651 385.132L720.901 385.793ZM625.607 255.682C656.646 301.92 687.804 348.204 720.901 385.793L721.651 385.132C688.606 347.601 657.484 301.375 626.438 255.125L625.607 255.682ZM624.525 254.07L625.607 255.682L626.438 255.125L625.356 253.513L624.525 254.07ZM530.915 125.633C563.234 162.765 593.832 208.345 624.525 254.07L625.356 253.513C594.671 207.801 564.038 162.164 531.669 124.976L530.915 125.633ZM425.95 47.6745C463.834 59.2488 498.208 88.0559 530.915 125.633L531.669 124.976C498.92 87.3511 464.395 58.3745 426.242 46.7182L425.95 47.6745ZM299.61 73.2128C346.664 41.6928 388.135 36.1211 425.95 47.6745L426.242 46.7182C388.09 35.0618 346.311 40.7258 299.054 72.3819L299.61 73.2128ZM139.838 254.544C199.87 162.278 252.517 104.759 299.61 73.2128L299.054 72.3819C251.797 104.038 199.063 161.686 139 253.999L139.838 254.544ZM138.308 254.145L139.146 254.691L139.692 253.852L138.854 253.307L138.308 254.145ZM298.497 71.5511C251.077 103.317 198.255 161.094 138.162 253.453L139 253.999C199.063 161.686 251.797 104.038 299.054 72.3819L298.497 71.5511ZM426.534 45.7618C388.045 34.0025 345.957 39.7588 298.497 71.5511L299.054 72.3819C346.311 40.7258 388.09 35.0618 426.242 46.7182L426.534 45.7618ZM532.423 124.32C499.632 86.6463 464.955 57.5002 426.534 45.7618L426.242 46.7182C464.395 58.3745 498.92 87.3511 531.669 124.976L532.423 124.32ZM626.165 252.925C595.496 207.236 564.833 161.555 532.423 124.32L531.669 124.976C564.03 162.156 594.657 207.78 625.335 253.482L626.165 252.925ZM627.268 254.567L626.165 252.925L625.335 253.482L626.438 255.125L627.268 254.567ZM722.402 384.472C689.407 346.999 658.323 300.83 627.268 254.567L626.438 255.125C657.484 301.375 688.605 347.601 721.651 385.132L722.402 384.472ZM828.698 462.009C790.221 450.62 755.403 421.952 722.402 384.472L721.651 385.132C754.697 422.664 789.668 451.499 828.414 462.968L828.698 462.009ZM957.276 435.767C909.329 467.572 867.111 473.379 828.698 462.009L828.414 462.968C867.16 474.437 909.682 468.538 957.829 436.601L957.276 435.767Z" fill="black"/>
</g>
</g>
<g filter="url(#filter1_d)">
<g style="mix-blend-mode:luminosity">
<path d="M1148 213.869C658 955.371 646.5 -524.629 166 213.869" stroke="black"/>
</g>
</g>
<g style="mix-blend-mode:screen" clip-path="url(#clip1)" filter="url(#filter2_d)">
<g style="mix-blend-mode:multiply">
<path fill-rule="evenodd" clip-rule="evenodd" d="M195.447 33.6856C147.381 65.5694 93.6515 123.482 32.4172 216.147L31.5828 215.595C92.8484 122.884 146.666 64.8436 194.895 32.8523C243.142 0.848323 285.815 -5.09595 324.728 6.42202C363.608 17.9305 398.656 46.8503 431.724 84.4068C464.795 121.967 495.935 168.222 526.978 214.466L528.059 216.078C558.749 261.796 589.364 307.405 621.708 344.565C654.436 382.166 688.886 411.058 726.904 422.673C764.888 434.278 806.513 428.66 853.668 397.072C900.843 365.471 953.534 307.887 1013.58 215.598L1014.42 216.144C954.341 308.479 901.563 366.192 854.225 397.903C806.866 429.627 764.933 435.337 726.612 423.63C688.325 411.932 653.724 382.871 620.954 345.222C588.568 308.014 557.924 262.362 527.25 216.666L526.147 215.024C495.096 168.768 463.994 122.57 430.973 85.0677C397.95 47.5618 363.056 18.8098 324.444 7.38092C285.865 -4.03846 243.495 1.81433 195.447 33.6856Z" fill="black"/>
<path d="M32.4172 216.147L32.1415 216.564L32.5587 216.839L32.8343 216.422L32.4172 216.147ZM195.447 33.6856L195.171 33.2689L195.171 33.2689L195.447 33.6856ZM31.5828 215.595L31.1657 215.32L30.89 215.737L31.3072 216.012L31.5828 215.595ZM194.895 32.8523L195.171 33.2689L195.171 33.2689L194.895 32.8523ZM324.728 6.42202L324.87 5.94258L324.87 5.94258L324.728 6.42202ZM431.724 84.4068L432.099 84.0764L432.099 84.0764L431.724 84.4068ZM526.978 214.466L527.393 214.188L527.393 214.188L526.978 214.466ZM528.059 216.078L528.475 215.799L528.475 215.799L528.059 216.078ZM621.708 344.565L621.331 344.894L621.331 344.894L621.708 344.565ZM726.904 422.673L726.758 423.151L726.758 423.151L726.904 422.673ZM853.668 397.072L853.39 396.657L853.39 396.657L853.668 397.072ZM1013.58 215.598L1013.85 215.179L1013.43 214.906L1013.16 215.326L1013.58 215.598ZM1014.42 216.144L1014.84 216.416L1015.11 215.997L1014.69 215.724L1014.42 216.144ZM854.225 397.903L854.503 398.319L854.503 398.319L854.225 397.903ZM726.612 423.63L726.758 423.151L726.758 423.151L726.612 423.63ZM620.954 345.222L621.331 344.894L621.331 344.894L620.954 345.222ZM527.25 216.666L527.665 216.388L527.665 216.388L527.25 216.666ZM526.147 215.024L526.563 214.745L526.563 214.745L526.147 215.024ZM430.973 85.0677L430.598 85.3981L430.598 85.3981L430.973 85.0677ZM324.444 7.38092L324.302 7.86035L324.302 7.86035L324.444 7.38092ZM32.8343 216.422C94.0531 123.782 147.738 65.9323 195.724 34.1022L195.171 33.2689C147.023 65.2065 93.25 123.183 32 215.871L32.8343 216.422ZM31.3072 216.012L32.1415 216.564L32.6928 215.729L31.8585 215.178L31.3072 216.012ZM194.618 32.4356C146.308 64.4807 92.4469 122.585 31.1657 215.32L32 215.871C93.25 123.183 147.023 65.2065 195.171 33.2689L194.618 32.4356ZM324.87 5.94258C285.79 -5.62471 242.966 0.365329 194.618 32.4356L195.171 33.2689C243.318 1.33132 285.84 -4.56719 324.586 6.90146L324.87 5.94258ZM432.099 84.0764C399.009 46.4945 363.885 17.4909 324.87 5.94258L324.586 6.90146C363.332 18.3702 398.303 47.206 431.349 84.7372L432.099 84.0764ZM527.393 214.188C496.354 167.95 465.196 121.666 432.099 84.0764L431.349 84.7372C464.395 122.268 495.516 168.495 526.562 214.745L527.393 214.188ZM528.475 215.799L527.393 214.188L526.562 214.745L527.644 216.357L528.475 215.799ZM622.085 344.237C589.766 307.105 559.168 261.524 528.475 215.799L527.644 216.357C558.329 262.069 588.962 307.705 621.331 344.894L622.085 344.237ZM727.05 422.195C689.166 410.621 654.792 381.814 622.085 344.237L621.331 344.894C654.08 382.519 688.605 411.495 726.758 423.151L727.05 422.195ZM853.39 396.657C806.336 428.177 764.865 433.749 727.05 422.195L726.758 423.151C764.91 434.808 806.689 429.144 853.946 397.488L853.39 396.657ZM1013.16 215.326C953.13 307.591 900.483 365.11 853.39 396.657L853.946 397.488C901.203 365.832 953.937 308.183 1014 215.871L1013.16 215.326ZM1014.69 215.724L1013.85 215.179L1013.31 216.017L1014.15 216.563L1014.69 215.724ZM854.503 398.319C901.923 366.553 954.745 308.775 1014.84 216.416L1014 215.871C953.938 308.183 901.203 365.832 853.946 397.488L854.503 398.319ZM726.466 424.108C764.955 435.867 807.043 430.111 854.503 398.319L853.946 397.488C806.689 429.144 764.91 434.808 726.758 423.151L726.466 424.108ZM620.577 345.55C653.368 383.223 688.045 412.369 726.466 424.108L726.758 423.151C688.605 411.495 654.08 382.519 621.331 344.894L620.577 345.55ZM526.835 216.945C557.504 262.634 588.167 308.314 620.577 345.55L621.331 344.894C588.97 307.714 558.343 262.09 527.665 216.388L526.835 216.945ZM525.732 215.302L526.835 216.945L527.665 216.388L526.563 214.745L525.732 215.302ZM430.598 85.3981C463.593 122.871 494.677 169.04 525.732 215.302L526.563 214.745C495.516 168.495 464.395 122.268 431.349 84.7373L430.598 85.3981ZM324.302 7.86035C362.779 19.2494 397.597 47.9175 430.598 85.3981L431.349 84.7373C398.303 47.206 363.332 18.3702 324.586 6.90148L324.302 7.86035ZM195.724 34.1022C243.671 2.29733 285.889 -3.5097 324.302 7.86035L324.586 6.90148C285.84 -4.56721 243.318 1.33132 195.171 33.2689L195.724 34.1022Z" fill="black"/>
</g>
</g>
<g filter="url(#filter3_d)">
<g style="mix-blend-mode:luminosity">
<path d="M5 256C495 -485.501 506.5 994.499 987 256" stroke="black"/>
</g>
</g>
<g style="mix-blend-mode:screen" clip-path="url(#clip2)" filter="url(#filter4_d)">
<g style="mix-blend-mode:multiply">
<path fill-rule="evenodd" clip-rule="evenodd" d="M422.447 33.6856C374.381 65.5694 320.652 123.482 259.417 216.147L258.583 215.595C319.848 122.884 373.666 64.8436 421.895 32.8523C470.142 0.848323 512.815 -5.09595 551.728 6.42202C590.608 17.9305 625.656 46.8503 658.724 84.4068C691.795 121.967 722.935 168.222 753.978 214.466L755.059 216.078C785.749 261.796 816.364 307.405 848.708 344.565C881.436 382.166 915.886 411.058 953.904 422.673C991.888 434.278 1033.51 428.66 1080.67 397.072C1127.84 365.471 1180.53 307.887 1240.58 215.598L1241.42 216.144C1181.34 308.479 1128.56 366.192 1081.22 397.903C1033.87 429.627 991.933 435.337 953.612 423.63C915.325 411.932 880.724 382.871 847.954 345.222C815.568 308.014 784.924 262.362 754.25 216.666L753.147 215.024C722.096 168.768 690.994 122.57 657.973 85.0677C624.95 47.5618 590.056 18.8098 551.444 7.38092C512.865 -4.03846 470.495 1.81433 422.447 33.6856Z" fill="black"/>
<path d="M259.417 216.147L259.142 216.564L259.559 216.839L259.834 216.422L259.417 216.147ZM422.447 33.6856L422.171 33.2689L422.171 33.2689L422.447 33.6856ZM258.583 215.595L258.166 215.32L257.89 215.737L258.307 216.012L258.583 215.595ZM421.895 32.8523L422.171 33.2689L422.171 33.2689L421.895 32.8523ZM551.728 6.42202L551.87 5.94258L551.87 5.94258L551.728 6.42202ZM658.724 84.4068L659.099 84.0764L659.099 84.0764L658.724 84.4068ZM753.978 214.466L754.393 214.188L754.393 214.188L753.978 214.466ZM755.059 216.078L755.475 215.799L755.475 215.799L755.059 216.078ZM848.708 344.565L848.331 344.894L848.331 344.894L848.708 344.565ZM953.904 422.673L953.758 423.151L953.758 423.151L953.904 422.673ZM1080.67 397.072L1080.39 396.657L1080.39 396.657L1080.67 397.072ZM1240.58 215.598L1240.85 215.179L1240.43 214.906L1240.16 215.326L1240.58 215.598ZM1241.42 216.144L1241.84 216.416L1242.11 215.997L1241.69 215.724L1241.42 216.144ZM1081.22 397.903L1081.5 398.319L1081.5 398.319L1081.22 397.903ZM953.612 423.63L953.758 423.151L953.758 423.151L953.612 423.63ZM847.954 345.222L848.331 344.894L848.331 344.894L847.954 345.222ZM754.25 216.666L754.665 216.388L754.665 216.388L754.25 216.666ZM753.147 215.024L753.563 214.745L753.563 214.745L753.147 215.024ZM657.973 85.0677L657.598 85.3981L657.598 85.3981L657.973 85.0677ZM551.444 7.38092L551.302 7.86035L551.302 7.86035L551.444 7.38092ZM259.834 216.422C321.053 123.782 374.738 65.9323 422.724 34.1022L422.171 33.2689C374.023 65.2065 320.25 123.183 259 215.871L259.834 216.422ZM258.307 216.012L259.142 216.564L259.693 215.729L258.858 215.178L258.307 216.012ZM421.618 32.4356C373.308 64.4807 319.447 122.585 258.166 215.32L259 215.871C320.25 123.183 374.023 65.2065 422.171 33.2689L421.618 32.4356ZM551.87 5.94258C512.79 -5.62471 469.966 0.365329 421.618 32.4356L422.171 33.2689C470.318 1.33132 512.84 -4.56719 551.586 6.90146L551.87 5.94258ZM659.099 84.0764C626.009 46.4945 590.885 17.4909 551.87 5.94258L551.586 6.90146C590.332 18.3702 625.303 47.206 658.349 84.7372L659.099 84.0764ZM754.393 214.188C723.354 167.95 692.196 121.666 659.099 84.0764L658.349 84.7372C691.395 122.268 722.516 168.495 753.562 214.745L754.393 214.188ZM755.475 215.799L754.393 214.188L753.562 214.745L754.644 216.357L755.475 215.799ZM849.085 344.237C816.766 307.105 786.168 261.524 755.475 215.799L754.644 216.357C785.329 262.069 815.962 307.705 848.331 344.894L849.085 344.237ZM954.05 422.195C916.166 410.621 881.792 381.814 849.085 344.237L848.331 344.894C881.08 382.519 915.605 411.495 953.758 423.151L954.05 422.195ZM1080.39 396.657C1033.34 428.177 991.865 433.749 954.05 422.195L953.758 423.151C991.91 434.808 1033.69 429.144 1080.95 397.488L1080.39 396.657ZM1240.16 215.326C1180.13 307.591 1127.48 365.11 1080.39 396.657L1080.95 397.488C1128.2 365.832 1180.94 308.183 1241 215.871L1240.16 215.326ZM1241.69 215.724L1240.85 215.179L1240.31 216.017L1241.15 216.563L1241.69 215.724ZM1081.5 398.319C1128.92 366.553 1181.75 308.775 1241.84 216.416L1241 215.871C1180.94 308.183 1128.2 365.832 1080.95 397.488L1081.5 398.319ZM953.466 424.108C991.955 435.867 1034.04 430.111 1081.5 398.319L1080.95 397.488C1033.69 429.144 991.91 434.808 953.758 423.151L953.466 424.108ZM847.577 345.55C880.368 383.223 915.045 412.369 953.466 424.108L953.758 423.151C915.605 411.495 881.08 382.519 848.331 344.894L847.577 345.55ZM753.835 216.945C784.504 262.634 815.167 308.314 847.577 345.55L848.331 344.894C815.97 307.714 785.343 262.09 754.665 216.388L753.835 216.945ZM752.732 215.302L753.835 216.945L754.665 216.388L753.563 214.745L752.732 215.302ZM657.598 85.3981C690.593 122.871 721.677 169.04 752.732 215.302L753.563 214.745C722.516 168.495 691.395 122.268 658.349 84.7373L657.598 85.3981ZM551.302 7.86035C589.779 19.2494 624.597 47.9175 657.598 85.3981L658.349 84.7373C625.303 47.206 590.332 18.3702 551.586 6.90148L551.302 7.86035ZM422.724 34.1022C470.671 2.29733 512.889 -3.5097 551.302 7.86035L551.586 6.90148C512.84 -4.56721 470.318 1.33132 422.171 33.2689L422.724 34.1022Z" fill="black"/>
</g>
</g>
<g filter="url(#filter5_d)">
<g style="mix-blend-mode:luminosity">
<path d="M232 256C722 -485.501 733.5 994.499 1214 256" stroke="black"/>
</g>
</g>
<defs>
<filter id="filter0_d" x="133.5" y="40.6292" width="991.917" height="436.24" filterUnits="userSpaceOnUse" color-interpolation-filters="sRGB">
<feFlood flood-opacity="0" result="BackgroundImageFix"/>
<feColorMatrix in="SourceAlpha" type="matrix" values="0 0 0 0 0 0 0 0 0 0 0 0 0 0 0 0 0 0 127 0"/>
<feOffset dy="4"/>
<feGaussianBlur stdDeviation="2"/>
<feColorMatrix type="matrix" values="0 0 0 0 0 0 0 0 0 0 0 0 0 0 0 0 0 0 0.25 0"/>
<feBlend mode="normal" in2="BackgroundImageFix" result="effect1_dropShadow"/>
<feBlend mode="normal" in="SourceGraphic" in2="effect1_dropShadow" result="shape"/>
</filter>
<filter id="filter1_d" x="161.581" y="0.499756" width="990.836" height="436.24" filterUnits="userSpaceOnUse" color-interpolation-filters="sRGB">
<feFlood flood-opacity="0" result="BackgroundImageFix"/>
<feColorMatrix in="SourceAlpha" type="matrix" values="0 0 0 0 0 0 0 0 0 0 0 0 0 0 0 0 0 0 127 0"/>
<feOffset dy="4"/>
<feGaussianBlur stdDeviation="2"/>
<feColorMatrix type="matrix" values="0 0 0 0 0 0 0 0 0 0 0 0 0 0 0 0 0 0 0.25 0"/>
<feBlend mode="normal" in2="BackgroundImageFix" result="effect1_dropShadow"/>
<feBlend mode="normal" in="SourceGraphic" in2="effect1_dropShadow" result="shape"/>
</filter>
<filter id="filter2_d" x="27.5828" y="1" width="991.917" height="436.24" filterUnits="userSpaceOnUse" color-interpolation-filters="sRGB">
<feFlood flood-opacity="0" result="BackgroundImageFix"/>
<feColorMatrix in="SourceAlpha" type="matrix" values="0 0 0 0 0 0 0 0 0 0 0 0 0 0 0 0 0 0 127 0"/>
<feOffset dy="4"/>
<feGaussianBlur stdDeviation="2"/>
<feColorMatrix type="matrix" values="0 0 0 0 0 0 0 0 0 0 0 0 0 0 0 0 0 0 0.25 0"/>
<feBlend mode="normal" in2="BackgroundImageFix" result="effect1_dropShadow"/>
<feBlend mode="normal" in="SourceGraphic" in2="effect1_dropShadow" result="shape"/>
</filter>
<filter id="filter3_d" x="0.582886" y="41.1294" width="990.836" height="436.24" filterUnits="userSpaceOnUse" color-interpolation-filters="sRGB">
<feFlood flood-opacity="0" result="BackgroundImageFix"/>
<feColorMatrix in="SourceAlpha" type="matrix" values="0 0 0 0 0 0 0 0 0 0 0 0 0 0 0 0 0 0 127 0"/>
<feOffset dy="4"/>
<feGaussianBlur stdDeviation="2"/>
<feColorMatrix type="matrix" values="0 0 0 0 0 0 0 0 0 0 0 0 0 0 0 0 0 0 0.25 0"/>
<feBlend mode="normal" in2="BackgroundImageFix" result="effect1_dropShadow"/>
<feBlend mode="normal" in="SourceGraphic" in2="effect1_dropShadow" result="shape"/>
</filter>
<filter id="filter4_d" x="254.583" y="1" width="991.917" height="436.24" filterUnits="userSpaceOnUse" color-interpolation-filters="sRGB">
<feFlood flood-opacity="0" result="BackgroundImageFix"/>
<feColorMatrix in="SourceAlpha" type="matrix" values="0 0 0 0 0 0 0 0 0 0 0 0 0 0 0 0 0 0 127 0"/>
<feOffset dy="4"/>
<feGaussianBlur stdDeviation="2"/>
<feColorMatrix type="matrix" values="0 0 0 0 0 0 0 0 0 0 0 0 0 0 0 0 0 0 0.25 0"/>
<feBlend mode="normal" in2="BackgroundImageFix" result="effect1_dropShadow"/>
<feBlend mode="normal" in="SourceGraphic" in2="effect1_dropShadow" result="shape"/>
</filter>
<filter id="filter5_d" x="227.583" y="41.1294" width="990.836" height="436.24" filterUnits="userSpaceOnUse" color-interpolation-filters="sRGB">
<feFlood flood-opacity="0" result="BackgroundImageFix"/>
<feColorMatrix in="SourceAlpha" type="matrix" values="0 0 0 0 0 0 0 0 0 0 0 0 0 0 0 0 0 0 127 0"/>
<feOffset dy="4"/>
<feGaussianBlur stdDeviation="2"/>
<feColorMatrix type="matrix" values="0 0 0 0 0 0 0 0 0 0 0 0 0 0 0 0 0 0 0.25 0"/>
<feBlend mode="normal" in2="BackgroundImageFix" result="effect1_dropShadow"/>
<feBlend mode="normal" in="SourceGraphic" in2="effect1_dropShadow" result="shape"/>
</filter>
<clipPath id="clip0">
<rect width="983.917" height="428.24" fill="white" transform="translate(137.5 40.6292)"/>
</clipPath>
<clipPath id="clip1">
<rect width="983.917" height="428.24" fill="white" transform="translate(1015.5 429.24) rotate(-180)"/>
</clipPath>
<clipPath id="clip2">
<rect width="983.917" height="428.24" fill="white" transform="translate(1242.5 429.24) rotate(-180)"/>
</clipPath>
</defs>
</svg>
